<svg xmlns="http://www.w3.org/2000/svg" viewBox="0 0 8.4667 8.4667"><path d="M4.6566.0264a4.2069 4.2069 0 1 0 0 8.414 4.2069 4.2069 0 0 0 1.7477-.3881 3.9688 4.0217 0 0 1-1.2185.2026A3.9688 4.0217 0 0 1 1.217 4.2333 3.9688 4.0217 0 0 1 5.1858.2118a3.9688 4.0217 0 0 1 1.2185.2026A4.2069 4.2069 0 0 0 4.6566.0263z" fill="#00c6ff"/><path d="M5.3578.5292a3.7439 3.7439 0 1 0 0 7.488 3.7439 3.7439 0 0 0 .8511-.1044 3.5586 3.5586 0 0 1-.3746.0248 3.5586 3.5586 0 1 1 0-7.1174 3.5586 3.5586 0 0 1 1.8495.524 3.7439 3.7439 0 0 0-2.326-.8149z" fill="#008be6"/><path d="M5.9133 1.2702a3.1353 3.1353 0 0 0-3.1352 3.1352A3.1353 3.1353 0 0 0 5.581 7.5189a3.003 3.003 0 0 1 .8082-5.8932 3.003 3.003 0 0 1 1.7363.5586 3.1353 3.1353 0 0 0-2.2123-.9142z" fill="#005acc"/></svg>